<svg width="21" height="14" viewBox="0 0 21 14" fill="none" xmlns="http://www.w3.org/2000/svg">
<path d="M10.536 13.8769C5.85342 13.8769 2.11695 11.1405 0.336914 7.01212C2.13299 2.88376 5.86946 0.147339 10.536 0.147339C15.2026 0.147339 18.9551 2.88376 20.7512 7.01212C18.9551 11.1405 15.2026 13.8769 10.536 13.8769ZM10.536 12.2319C14.2404 12.2319 17.4317 10.0965 18.9231 7.01212C17.4317 3.92771 14.2404 1.79235 10.536 1.79235C6.84768 1.79235 3.65644 3.92771 2.16506 7.01212C3.64041 10.0965 6.83164 12.2319 10.536 12.2319ZM6.65524 7.01212C6.65524 4.89258 8.38717 3.18429 10.52 3.18429C12.6689 3.18429 14.4008 4.90839 14.4008 7.01212C14.4008 9.13165 12.6528 10.8399 10.52 10.8399C8.38717 10.8399 6.65524 9.11584 6.65524 7.01212ZM10.7606 6.04725C10.7606 6.71158 11.2898 7.24938 11.9793 7.24938C12.6368 7.24938 13.182 6.71158 13.182 6.04725C13.182 5.39873 12.6528 4.86094 11.9793 4.86094C11.3058 4.86094 10.7606 5.38292 10.7606 6.04725Z" fill="#292929"/>
</svg>
