<svg width="45" height="45" viewBox="0 0 45 45" fill="none" xmlns="http://www.w3.org/2000/svg">
<path d="M4.19097 45C3.80274 45 3.48783 44.6851 3.48783 44.2969C3.48783 43.9087 3.80274 43.5938 4.19097 43.5938H8.55031C8.93853 43.5938 9.25345 43.9102 9.25345 44.2969C9.25345 44.6851 8.93853 45 8.55031 45H4.19097ZM12.2637 45C11.8755 45 11.5606 44.6851 11.5606 44.2969C11.5606 43.9087 11.877 43.5938 12.2637 43.5938H36.4498C36.8378 43.5938 37.1528 43.9102 37.1528 44.2969C37.1528 44.6851 36.8379 45 36.4498 45H12.2637ZM39.9359 45H44.2762H44.2954C44.6835 45 44.9985 44.6851 44.9985 44.2969V44.2764C44.994 39.3268 43.3886 34.7476 40.6698 31.0312C37.8823 27.2184 33.9169 24.3135 29.3129 22.8516C28.9438 22.7359 28.5497 22.9381 28.434 23.3072C28.3183 23.6763 28.5219 24.0704 28.8896 24.186C33.2049 25.5557 36.9228 28.2803 39.539 31.8589C41.9575 35.1665 43.437 39.2094 43.5805 43.5922H39.936C39.5479 43.5922 39.2329 43.9087 39.2329 44.2953C39.2329 44.6836 39.5478 45 39.9359 45ZM15.6856 22.8515C11.0801 24.3135 7.11624 27.2167 4.32714 31.0312C1.60693 34.7519 0 39.3384 0 44.2954C0 44.6836 0.314916 44.9985 0.703139 44.9985C1.09129 44.9985 1.40628 44.6836 1.40628 44.2954C1.40628 39.6416 2.91064 35.3422 5.45806 31.8588C8.07429 28.2816 11.792 25.557 16.1089 24.186C16.4781 24.0703 16.6817 23.6747 16.5645 23.3071C16.4487 22.938 16.0547 22.7359 15.6856 22.8515Z" fill="#292929"/>
<path d="M22.5002 0C25.7037 0 28.6056 1.2993 30.7033 3.39695C32.8009 5.4946 34.1017 8.39796 34.1017 11.6015C34.1017 14.8008 32.8024 17.7012 30.7033 19.8017L30.7017 19.8032L30.7002 19.8046V19.8061C28.5997 21.9052 25.7007 23.2031 22.5014 23.2031C19.2978 23.2031 16.396 21.9038 14.2984 19.8046C12.1993 17.7055 10.9014 14.8051 10.9014 11.6015C10.9014 8.39936 12.2007 5.49901 14.2984 3.40136L14.3013 3.39842C16.3977 1.2993 19.298 0 22.5002 0ZM29.7087 4.39309C27.8644 2.54881 25.3156 1.40628 22.5002 1.40628C19.6847 1.40628 17.1345 2.54742 15.2902 4.39015C13.4459 6.23443 12.3048 8.78471 12.3048 11.6016C12.3048 14.417 13.4475 16.9659 15.2902 18.8101C17.1345 20.6543 19.6847 21.7969 22.4987 21.7969C25.3156 21.7969 27.8659 20.6558 29.7071 18.8145L29.7101 18.8116C31.5514 16.9703 32.6925 14.42 32.6925 11.6031C32.6939 8.78611 31.5529 6.2373 29.7087 4.39309Z" fill="#292929"/>
<path d="M22.5 0C25.1353 0 27.5669 0.881809 29.5167 2.36573L29.5607 2.40235C31.5309 3.917 33.0016 6.05127 33.6797 8.50928C33.7824 8.88287 33.5641 9.26808 33.1919 9.37205C33.1304 9.38962 33.0659 9.39844 33.0044 9.39844V9.40138H24.085C22.3872 9.40138 20.8403 8.70413 19.7197 7.58497L19.7168 7.57909C18.5976 6.45847 17.9004 4.9116 17.9004 3.21387V1.42238C17.9004 1.10599 18.1099 0.837914 18.3985 0.749975C19.0327 0.51116 19.6992 0.322269 20.3906 0.196244C21.082 0.0673507 21.7881 0 22.5 0ZM28.6655 3.479C26.956 2.17971 24.8188 1.40628 22.5 1.40628C21.8569 1.40628 21.2344 1.46488 20.6426 1.57326C20.1899 1.65678 19.7432 1.77097 19.3067 1.91604V3.21387C19.3067 4.5264 19.8443 5.72165 20.7071 6.58736L20.7115 6.59177C21.5772 7.45601 22.7725 7.99217 24.085 7.99217H32.0391C31.3624 6.20208 30.1933 4.64941 28.7022 3.50533L28.6655 3.479Z" fill="#292929"/>
<path d="M11.3365 8.44637C11.8301 6.69584 12.7266 5.11096 13.9131 3.80432C15.1231 2.47274 16.6422 1.42241 18.3531 0.766253C18.7149 0.628537 19.1206 0.810222 19.2583 1.17205C19.2891 1.2541 19.3053 1.33903 19.3038 1.42256H19.3053V3.21404C19.3053 4.91178 18.608 6.46011 17.4888 7.57927L17.4859 7.58221C16.3653 8.70136 14.8184 9.39862 13.1207 9.39862H11.9927C11.6045 9.39862 11.2896 9.0837 11.2896 8.69548C11.2911 8.60747 11.3072 8.52401 11.3365 8.44637ZM14.9517 4.74914C14.0977 5.68661 13.418 6.78672 12.9595 7.99227H13.1221C14.4346 7.99227 15.6299 7.45464 16.4956 6.59187L16.4986 6.58893C17.3628 5.72322 17.899 4.52789 17.899 3.21536V2.50053C16.7842 3.06603 15.7837 3.83211 14.9517 4.74914Z" fill="#292929"/>
<path d="M19.8222 29.3936L22.0019 27.2138C22.2758 26.9398 22.7226 26.9398 22.9965 27.2138L25.1763 29.3936C25.4502 29.6676 25.4502 30.1144 25.1763 30.3882L22.9965 32.5679C22.7225 32.8419 22.2758 32.8419 22.0019 32.5679L19.8222 30.3882C19.5482 30.1142 19.5482 29.6674 19.8222 29.3936ZM22.4999 28.7066L21.3148 29.8916L22.4999 31.0766L23.6849 29.8916L22.4999 28.7066Z" fill="#292929"/>
<path d="M25.5643 41.0918C25.6962 41.455 25.5087 41.8579 25.1439 41.9898C24.7807 42.1216 24.3778 41.9341 24.2446 41.5693L22.4985 36.7456L20.7539 41.5693C20.6221 41.9325 20.2193 42.1216 19.8545 41.9898C19.4912 41.8579 19.3023 41.4552 19.4341 41.0918L21.8364 34.4531C21.9039 34.2627 22.0547 34.1016 22.2598 34.0254C22.623 33.8936 23.0259 34.0825 23.1577 34.4459L25.5643 41.0918Z" fill="#292929"/>
<path d="M25.314 18.2592C25.6699 18.1098 26.0815 18.2768 26.231 18.6327C26.3804 18.9887 26.2134 19.4003 25.8575 19.5497C25.3346 19.7709 24.7837 19.9423 24.2153 20.0566C23.653 20.1694 23.0772 20.2309 22.5014 20.2309C21.9258 20.2309 21.3516 20.1708 20.7876 20.0566C20.2192 19.9423 19.6684 19.7694 19.1455 19.5497C18.7896 19.4003 18.6226 18.9887 18.772 18.6327C18.9214 18.2768 19.333 18.1098 19.689 18.2592C20.1256 18.4437 20.5869 18.5873 21.063 18.684C21.5186 18.7748 22.0005 18.8247 22.503 18.8247C23.0054 18.8247 23.4874 18.7763 23.9429 18.684C24.416 18.5873 24.876 18.4437 25.314 18.2592Z" fill="#292929"/>
<path d="M34.7769 39.476C34.6275 39.1201 34.7944 38.7085 35.1503 38.559C35.5064 38.4096 35.9179 38.5765 36.0674 38.9326C36.4205 39.7661 36.6943 40.6465 36.8776 41.5546C37.0577 42.4497 37.1529 43.3651 37.1529 44.2939C37.1529 44.682 36.838 44.997 36.4499 44.997C36.0616 44.997 35.7467 44.6821 35.7467 44.2939C35.7467 43.4399 35.6633 42.6152 35.5036 41.8286C35.3395 41.0155 35.0934 40.226 34.7769 39.476Z" fill="#292929"/>
<path d="M9.25345 44.2954C9.25345 44.6835 8.93853 44.9985 8.55031 44.9985C8.16216 44.9985 7.84717 44.6836 7.84717 44.2954C7.84717 43.3682 7.94239 42.4512 8.12253 41.5561C8.30568 40.6479 8.57957 39.7676 8.93257 38.9341C9.08198 38.5781 9.49358 38.4112 9.8496 38.5606C10.2056 38.7099 10.3725 39.1216 10.2231 39.4776C9.90673 40.2261 9.66064 41.0157 9.49513 41.8301C9.3369 42.6166 9.25345 43.4413 9.25345 44.2954Z" fill="#292929"/>
<path d="M15.5567 24.1303C15.2183 23.9428 15.0982 23.5165 15.2857 23.1783C15.4732 22.8398 15.9009 22.7183 16.2379 22.9071C17.1797 23.4301 18.1949 23.8403 19.2584 24.1142L19.2613 24.1158V24.1142C20.2881 24.3793 21.3736 24.5214 22.4986 24.5214C23.6237 24.5214 24.7105 24.3808 25.7358 24.1142L25.7667 24.1069C26.8198 23.8328 27.8262 23.4272 28.7592 22.9071C29.0977 22.7197 29.5238 22.8413 29.7114 23.1783C29.8989 23.5167 29.7773 23.9428 29.4404 24.1303C28.4047 24.7047 27.2884 25.1573 26.1137 25.4618L26.0873 25.4692C24.9345 25.7667 23.7304 25.9263 22.497 25.9263C21.2636 25.9263 20.0595 25.7681 18.9067 25.4692V25.4677C17.7262 25.1645 16.6012 24.7089 15.5567 24.1303Z" fill="#292929"/>
</svg>
