<svg width="37" height="52" xmlns="http://www.w3.org/2000/svg">

 <g>
  <title>background</title>
  <rect fill="none" id="canvas_background" height="54" width="39" y="-1" x="-1"/>
 </g>
 <g>
  <title>Layer 1</title>
  <path stroke="null" id="svg_1" fill="#068800" d="m18.50003,28.33943c-2.4393,0 -4.82384,-0.7351 -6.85205,-2.1123c-2.0282,-1.3772 -3.609,-3.3346 -4.54248,-5.6248c-0.93348,-2.2901 -1.17772,-4.8102 -0.70184,-7.2414c0.47589,-2.43122 1.65052,-4.66445 3.37537,-6.41727c1.72485,-1.75281 3.92244,-2.9465 6.3149,-3.4301c2.3924,-0.4836 4.8722,-0.2354 7.1259,0.71322c2.2536,0.94862 4.1798,2.55505 5.535,4.61614c1.3552,2.0611 2.0785,4.48431 2.0785,6.96311c0,3.3241 -1.2994,6.512 -3.6123,8.8624c-2.313,2.3505 -5.45,3.671 -8.721,3.671zm0,-21.93336c-1.8295,0 -3.61788,0.5513 -5.13904,1.58418c-1.52115,1.03289 -2.70675,2.50097 -3.40686,4.2186c-0.70011,1.71758 -0.88329,3.60768 -0.52638,5.43108c0.35692,1.8234 1.23789,3.4983 2.53153,4.8129c1.29364,1.3147 2.94183,2.2099 4.73615,2.5726c1.7943,0.3627 3.6542,0.1766 5.3444,-0.5349c1.6902,-0.7115 3.1349,-1.9163 4.1513,-3.4621c1.0164,-1.5458 1.5589,-3.3632 1.5589,-5.2224c0,-2.493 -0.9746,-4.88392 -2.7093,-6.64676c-1.7347,-1.76285 -4.0875,-2.7532 -6.5407,-2.7532z"/>
  <path id="svg_2" fill="#068800" d="m29.2917,50.18182l-21.58337,0c-2.04437,0 -4.00502,-0.8253 -5.45061,-2.2943c-1.44559,-1.4691 -2.25772,-3.4615 -2.25772,-5.539l0,-6.26669c0.00005,-0.27188 0.06972,-0.53908 0.20217,-0.77531c0.13245,-0.23623 0.32311,-0.43336 0.55325,-0.57202l7.70833,-4.7c0.34779,-0.15973 0.74151,-0.18269 1.10499,-0.06443c0.36348,0.11826 0.67086,0.36933 0.86266,0.70462c0.1919,0.3353 0.2545,0.73098 0.1758,1.11049c-0.0787,0.37951 -0.2931,0.71587 -0.6018,0.94398l-6.92207,4.24567l0,5.37369c0,1.2465 0.48728,2.442 1.35463,3.3234c0.86736,0.8814 2.04375,1.3766 3.27037,1.3766l21.58337,0c1.2266,0 2.403,-0.4952 3.2703,-1.3766c0.8674,-0.8814 1.3547,-2.0769 1.3547,-3.3234l0,-5.37369l-6.953,-4.24567c-0.1965,-0.09028 -0.3723,-0.22147 -0.5158,-0.3851c-0.1436,-0.16363 -0.2517,-0.35606 -0.3175,-0.56483c-0.0658,-0.20878 -0.0877,-0.42925 -0.0644,-0.64718c0.0234,-0.21793 0.0915,-0.42845 0.1999,-0.61796c0.1084,-0.18952 0.2548,-0.35379 0.4296,-0.48222c0.1748,-0.12842 0.3742,-0.21814 0.5853,-0.26334c0.211,-0.0452 0.4291,-0.04489 0.6401,0.00093c0.2109,0.04581 0.4101,0.1361 0.5845,0.26504l7.7083,4.7c0.2359,0.13471 0.4328,0.33013 0.5708,0.56664c0.138,0.2365 0.2123,0.50575 0.2155,0.78069l0,6.26669c0,2.0775 -0.8121,4.0699 -2.2577,5.539c-1.4456,1.469 -3.4063,2.2943 -5.4506,2.2943z"/>
 </g>
</svg>